<?xml version="1.0" encoding="utf-8"?>
<!-- Generator: Adobe Illustrator 27.0.0, SVG Export Plug-In . SVG Version: 6.00 Build 0)  -->
<svg version="1.1" id="Layer_1" xmlns="http://www.w3.org/2000/svg" xmlns:xlink="http://www.w3.org/1999/xlink" x="0px" y="0px"
	 viewBox="0 0 391.34 153.7" style="enable-background:new 0 0 391.34 153.7;" xml:space="preserve">
<style type="text/css">
	.st0{fill:#E2FF00;}
	.st1{fill:#FFFFFF;}
</style>
<g>
	<g>
		<g>
			<g>
				<g>
					<polygon class="st0" points="26.67,6.36 0,6.36 54.95,61.32 0,116.3 26.66,116.3 81.62,61.32 					"/>
				</g>
			</g>
			<polygon class="st1" points="35.16,61.32 0,96.5 0,26.16 			"/>
		</g>
		<g>
			<path class="st0" d="M17.18,136.91h3.53L15,149.52H13.9l-3.53-7.16l-3.56,7.16H5.72L0,136.91h3.53l2.91,7.01l3.36-7.29h1.12
				l3.41,7.14L17.18,136.91z"/>
			<path class="st0" d="M37.48,141.59v7.63h-3.33v-7.16c0-0.71-0.21-1.29-0.63-1.73c-0.42-0.44-0.97-0.66-1.65-0.66
				c-0.68,0-1.24,0.22-1.68,0.66c-0.44,0.44-0.66,1.02-0.66,1.73v7.16h-3.36v-18.65h3.36v7.39c0.88-0.88,2.01-1.32,3.38-1.32
				c1.39,0,2.5,0.45,3.33,1.36C37.06,138.9,37.48,140.09,37.48,141.59z"/>
			<path class="st0" d="M55.51,144.2h-8.63c0.2,0.78,0.6,1.38,1.21,1.8c0.61,0.42,1.36,0.63,2.25,0.63c1.21,0,2.35-0.41,3.43-1.24
				l1.39,2.29c-1.48,1.23-3.12,1.84-4.92,1.84c-1.89,0.03-3.49-0.58-4.81-1.85c-1.32-1.27-1.96-2.8-1.93-4.59
				c-0.03-1.77,0.59-3.3,1.87-4.58c1.28-1.28,2.8-1.9,4.58-1.87c1.69,0,3.08,0.55,4.17,1.64c1.09,1.09,1.63,2.45,1.63,4.08
				C55.73,142.95,55.66,143.57,55.51,144.2z M46.88,141.83h5.6c-0.02-0.75-0.28-1.35-0.78-1.8c-0.51-0.46-1.13-0.68-1.88-0.68
				c-0.71,0-1.33,0.22-1.87,0.67S47.06,141.07,46.88,141.83z"/>
			<path class="st0" d="M69.38,136.91v2.96h-0.9c-1.03,0-1.84,0.27-2.43,0.82c-0.59,0.55-0.88,1.34-0.88,2.39v6.14h-3.36v-12.31
				h3.08v1.47c0.86-1.08,1.99-1.62,3.38-1.62C68.7,136.76,69.07,136.81,69.38,136.91z"/>
			<path class="st0" d="M86.02,144.2h-8.63c0.2,0.78,0.6,1.38,1.21,1.8c0.61,0.42,1.36,0.63,2.25,0.63c1.21,0,2.35-0.41,3.43-1.24
				l1.39,2.29c-1.48,1.23-3.12,1.84-4.92,1.84c-1.89,0.03-3.49-0.58-4.81-1.85c-1.32-1.27-1.96-2.8-1.93-4.59
				c-0.03-1.77,0.59-3.3,1.87-4.58c1.28-1.28,2.8-1.9,4.58-1.87c1.69,0,3.08,0.55,4.17,1.64c1.09,1.09,1.63,2.45,1.63,4.08
				C86.25,142.95,86.17,143.57,86.02,144.2z M77.39,141.83h5.6c-0.02-0.75-0.28-1.35-0.78-1.8c-0.51-0.46-1.13-0.68-1.88-0.68
				c-0.71,0-1.33,0.22-1.87,0.67S77.57,141.07,77.39,141.83z"/>
			<path class="st0" d="M103.01,149.22v-16.41h3.36v16.41H103.01z"/>
			<path class="st0" d="M117.31,149.22v-13.38h-5.25v-3.03h13.88v3.03h-5.27v13.38H117.31z"/>
			<path class="st0" d="M159.58,141.59v7.63h-3.36v-7.16c0-0.73-0.2-1.31-0.6-1.74c-0.4-0.43-0.93-0.65-1.59-0.65
				c-0.66,0-1.21,0.22-1.63,0.65c-0.42,0.43-0.63,0.99-0.63,1.67v7.24h-3.36v-7.16c0-0.73-0.2-1.31-0.6-1.74
				c-0.4-0.43-0.93-0.65-1.59-0.65c-0.68,0-1.23,0.22-1.64,0.65c-0.41,0.43-0.62,1.01-0.62,1.74v7.16h-3.36v-12.31h3.08V138
				c0.86-0.91,2.02-1.37,3.48-1.37c1.61,0,2.83,0.59,3.66,1.77c1.04-1.18,2.41-1.77,4.1-1.77c1.43,0,2.56,0.45,3.39,1.34
				C159.17,138.88,159.58,140.08,159.58,141.59z"/>
			<path class="st0" d="M177.59,144.2h-8.63c0.2,0.78,0.6,1.38,1.21,1.8c0.61,0.42,1.36,0.63,2.25,0.63c1.21,0,2.35-0.41,3.43-1.24
				l1.39,2.29c-1.48,1.23-3.12,1.84-4.92,1.84c-1.89,0.03-3.49-0.58-4.81-1.85c-1.32-1.27-1.96-2.8-1.93-4.59
				c-0.03-1.77,0.59-3.3,1.87-4.58c1.28-1.28,2.8-1.9,4.58-1.87c1.69,0,3.08,0.55,4.17,1.64c1.09,1.09,1.63,2.45,1.63,4.08
				C177.81,142.95,177.74,143.57,177.59,144.2z M168.96,141.83h5.6c-0.02-0.75-0.28-1.35-0.78-1.8c-0.51-0.46-1.13-0.68-1.88-0.68
				c-0.71,0-1.33,0.22-1.87,0.67S169.14,141.07,168.96,141.83z"/>
			<path class="st0" d="M195.22,144.2h-8.63c0.2,0.78,0.6,1.38,1.21,1.8c0.61,0.42,1.36,0.63,2.25,0.63c1.21,0,2.35-0.41,3.43-1.24
				l1.39,2.29c-1.48,1.23-3.12,1.84-4.92,1.84c-1.89,0.03-3.49-0.58-4.81-1.85c-1.32-1.27-1.96-2.8-1.93-4.59
				c-0.03-1.77,0.59-3.3,1.87-4.58c1.28-1.28,2.8-1.9,4.58-1.87c1.69,0,3.08,0.55,4.17,1.64c1.09,1.09,1.63,2.45,1.63,4.08
				C195.44,142.95,195.37,143.57,195.22,144.2z M186.59,141.83h5.6c-0.02-0.75-0.28-1.35-0.78-1.8c-0.51-0.46-1.13-0.68-1.88-0.68
				c-0.71,0-1.33,0.22-1.87,0.67S186.77,141.07,186.59,141.83z"/>
			<path class="st0" d="M209.45,146.41v2.81c-0.8,0.2-1.57,0.3-2.31,0.3c-1.57,0-2.79-0.39-3.64-1.17
				c-0.85-0.78-1.28-1.93-1.28-3.46v-5.15h-1.94v-2.84h1.94v-3.11h3.36v3.11h3.48v2.84h-3.48v4.85c0,0.7,0.18,1.19,0.53,1.48
				c0.36,0.29,0.94,0.44,1.75,0.44C208.14,146.51,208.67,146.48,209.45,146.41z"/>
			<path class="st0" d="M214.24,147.13l1.69-2.04c1.06,1.11,2.21,1.67,3.46,1.67c0.46,0,0.84-0.09,1.13-0.26
				c0.29-0.17,0.44-0.43,0.44-0.76c0-0.25-0.09-0.44-0.26-0.58c-0.17-0.14-0.51-0.32-1.01-0.53l-1.32-0.55
				c-1.18-0.48-2.03-1.01-2.56-1.58c-0.53-0.57-0.8-1.3-0.8-2.18c0-1.14,0.41-2.04,1.24-2.7s1.92-0.98,3.28-0.98
				c1.82,0,3.3,0.61,4.43,1.84l-1.69,2.06c-0.83-0.78-1.75-1.17-2.76-1.17c-0.88,0-1.32,0.29-1.32,0.87c0,0.23,0.09,0.42,0.27,0.57
				c0.18,0.15,0.52,0.32,1.02,0.52l1.19,0.5c1.23,0.5,2.11,1.03,2.65,1.59c0.54,0.56,0.81,1.28,0.81,2.16
				c0,1.23-0.46,2.19-1.37,2.88c-0.9,0.7-2.04,1.04-3.43,1.04C217.14,149.52,215.44,148.72,214.24,147.13z"/>
			<path class="st0" d="M240.61,149.22v-18.65h3.36v18.65H240.61z"/>
			<path class="st0" d="M262.09,144.2h-8.63c0.2,0.78,0.6,1.38,1.21,1.8c0.6,0.42,1.36,0.63,2.25,0.63c1.21,0,2.35-0.41,3.43-1.24
				l1.39,2.29c-1.48,1.23-3.12,1.84-4.92,1.84c-1.89,0.03-3.49-0.58-4.81-1.85c-1.32-1.27-1.96-2.8-1.93-4.59
				c-0.03-1.77,0.59-3.3,1.87-4.58c1.28-1.28,2.8-1.9,4.58-1.87c1.69,0,3.08,0.55,4.17,1.64c1.09,1.09,1.63,2.45,1.63,4.08
				C262.32,142.95,262.24,143.57,262.09,144.2z M253.46,141.83h5.6c-0.02-0.75-0.28-1.35-0.78-1.8c-0.51-0.46-1.13-0.68-1.88-0.68
				c-0.71,0-1.34,0.22-1.87,0.67C254,140.47,253.65,141.07,253.46,141.83z"/>
			<path class="st0" d="M278.73,141.91v7.31h-3.08v-1.19c-0.96,1-2.21,1.49-3.75,1.49c-1.29,0-2.33-0.34-3.1-1.02
				c-0.77-0.68-1.16-1.57-1.16-2.66c0-1.11,0.42-1.98,1.26-2.62c0.84-0.64,1.97-0.96,3.39-0.96h3.08v-0.55c0-0.7-0.2-1.23-0.59-1.6
				c-0.39-0.37-0.96-0.56-1.7-0.56c-0.61,0-1.17,0.13-1.67,0.4c-0.5,0.27-1.03,0.7-1.59,1.29l-1.74-2.06
				c1.43-1.69,3.22-2.54,5.37-2.54c1.62,0,2.91,0.46,3.86,1.38C278.26,138.94,278.73,140.24,278.73,141.91z M275.37,144.62v-0.15
				h-2.64c-1.14,0-1.72,0.41-1.72,1.24c0,0.42,0.16,0.74,0.49,0.98c0.32,0.24,0.75,0.36,1.28,0.36c0.75,0,1.36-0.23,1.85-0.68
				C275.13,145.92,275.37,145.33,275.37,144.62z"/>
			<path class="st0" d="M294.4,130.57h3.36v18.65h-3.08v-1.52c-0.85,1.21-2.16,1.82-3.95,1.82c-1.72,0-3.15-0.61-4.28-1.83
				c-1.13-1.22-1.69-2.76-1.69-4.61c0-1.86,0.56-3.39,1.69-4.61c1.13-1.22,2.55-1.83,4.28-1.83c1.56,0,2.79,0.49,3.68,1.47V130.57z
				 M293.57,145.57c0.59-0.6,0.88-1.43,0.88-2.49c0-1.06-0.3-1.89-0.89-2.5c-0.6-0.61-1.34-0.91-2.21-0.91
				c-0.91,0-1.67,0.32-2.28,0.95c-0.6,0.63-0.91,1.44-0.91,2.44c0,1.01,0.3,1.83,0.9,2.46c0.6,0.63,1.36,0.95,2.29,0.95
				C292.23,146.46,292.98,146.16,293.57,145.57z"/>
			<path class="st0" d="M315.89,144.2h-8.63c0.2,0.78,0.6,1.38,1.21,1.8c0.6,0.42,1.36,0.63,2.25,0.63c1.21,0,2.35-0.41,3.43-1.24
				l1.39,2.29c-1.48,1.23-3.12,1.84-4.92,1.84c-1.89,0.03-3.49-0.58-4.81-1.85c-1.32-1.27-1.96-2.8-1.93-4.59
				c-0.03-1.77,0.59-3.3,1.87-4.58c1.28-1.28,2.8-1.9,4.58-1.87c1.69,0,3.08,0.55,4.17,1.64c1.09,1.09,1.63,2.45,1.63,4.08
				C316.11,142.95,316.03,143.57,315.89,144.2z M307.26,141.83h5.6c-0.02-0.75-0.28-1.35-0.78-1.8c-0.51-0.46-1.13-0.68-1.88-0.68
				c-0.71,0-1.34,0.22-1.87,0.67C307.79,140.47,307.44,141.07,307.26,141.83z"/>
			<path class="st0" d="M329.76,136.91v2.96h-0.9c-1.03,0-1.84,0.27-2.42,0.82c-0.59,0.55-0.88,1.34-0.88,2.39v6.14h-3.36v-12.31
				h3.08v1.47c0.86-1.08,1.99-1.62,3.38-1.62C329.08,136.76,329.45,136.81,329.76,136.91z"/>
			<path class="st0" d="M334.21,147.13l1.69-2.04c1.06,1.11,2.21,1.67,3.46,1.67c0.46,0,0.84-0.09,1.13-0.26
				c0.29-0.17,0.44-0.43,0.44-0.76c0-0.25-0.09-0.44-0.26-0.58c-0.17-0.14-0.51-0.32-1.01-0.53l-1.32-0.55
				c-1.18-0.48-2.03-1.01-2.56-1.58c-0.53-0.57-0.8-1.3-0.8-2.18c0-1.14,0.41-2.04,1.24-2.7c0.83-0.65,1.92-0.98,3.28-0.98
				c1.82,0,3.3,0.61,4.43,1.84l-1.69,2.06c-0.83-0.78-1.75-1.17-2.76-1.17c-0.88,0-1.32,0.29-1.32,0.87c0,0.23,0.09,0.42,0.27,0.57
				c0.18,0.15,0.52,0.32,1.02,0.52l1.19,0.5c1.23,0.5,2.11,1.03,2.65,1.59c0.54,0.56,0.81,1.28,0.81,2.16
				c0,1.23-0.46,2.19-1.37,2.88c-0.9,0.7-2.04,1.04-3.43,1.04C337.11,149.52,335.41,148.72,334.21,147.13z"/>
			<path class="st0" d="M361.44,141.59v7.63h-3.33v-7.16c0-0.71-0.21-1.29-0.63-1.73c-0.42-0.44-0.97-0.66-1.65-0.66
				s-1.24,0.22-1.68,0.66c-0.44,0.44-0.66,1.02-0.66,1.73v7.16h-3.36v-18.65h3.36v7.39c0.88-0.88,2.01-1.32,3.38-1.32
				c1.39,0,2.5,0.45,3.33,1.36C361.03,138.9,361.44,140.09,361.44,141.59z"/>
			<path class="st0" d="M367.69,132.43c0-0.6,0.21-1.09,0.62-1.49c0.41-0.4,0.92-0.6,1.52-0.6c0.6,0,1.11,0.2,1.53,0.6
				c0.42,0.4,0.63,0.9,0.63,1.49c0,0.58-0.21,1.07-0.63,1.47c-0.42,0.4-0.93,0.6-1.53,0.6c-0.6,0-1.1-0.2-1.52-0.6
				C367.89,133.5,367.69,133.01,367.69,132.43z M368.16,149.22v-12.31h3.36v12.31H368.16z"/>
			<path class="st0" d="M389.63,138.47c1.13,1.22,1.7,2.75,1.7,4.59s-0.57,3.38-1.7,4.61c-1.14,1.24-2.56,1.85-4.27,1.85
				c-1.54,0-2.77-0.5-3.68-1.49v5.67h-3.36v-16.79h3.08v1.54c0.85-1.21,2.16-1.82,3.95-1.82
				C387.08,136.64,388.5,137.25,389.63,138.47z M387.93,143.08c0-1.01-0.3-1.83-0.9-2.46c-0.6-0.63-1.36-0.95-2.29-0.95
				c-0.9,0-1.64,0.3-2.23,0.9c-0.59,0.6-0.88,1.43-0.88,2.49c0,1.06,0.29,1.89,0.88,2.5c0.59,0.61,1.33,0.91,2.23,0.91
				c0.91,0,1.67-0.31,2.28-0.95C387.63,144.89,387.93,144.07,387.93,143.08z"/>
		</g>
	</g>
	<g>
		<path class="st1" d="M116.45,0v41.81c-6.6-8.17-18.54-13.52-29.86-13.52c-7.35,0-14.2,1.81-20.12,5.15l12.79,12.79
			c3.42-1.57,7.17-2.38,10.95-2.38c13.51,0,26.24,10.53,26.24,29.08c0,18.7-12.73,29.23-26.24,29.23c-9.07,0-17.92-4.99-22.66-14.05
			l-13.23,13.24c7.44,10.28,19,16.37,32.11,16.37c14.15,0,24.52-6.6,30.02-14.46v13.04h18.08V0H116.45z"/>
		<path class="st1" d="M189.07,117.72c-24.83,0-43.22-17.6-43.22-44.79c0-27.19,17.6-44.63,43.22-44.63
			c24.67,0,42.12,17.13,42.12,42.59c0,2.99-0.16,5.82-0.63,8.8h-66.17c1.26,14.3,11.47,22.95,24.68,22.95
			c11,0,17.13-5.34,20.43-12.1h19.33C223.96,105.62,210.28,117.72,189.07,117.72z M164.55,65.23h47.94
			c-0.31-13.36-10.84-21.85-24.2-21.85C176.18,43.38,166.43,51.55,164.55,65.23z"/>
		<path class="st1" d="M251.46,29.71l24.52,70.57l24.52-70.57h19.02l-33,86.6h-21.38l-32.85-86.6H251.46z"/>
		<path class="st1" d="M358.17,117.72c-20.75,0-35.36-12.26-36.15-27.98h18.55c0.63,7.07,7.39,12.89,17.29,12.89
			c10.37,0,15.87-4.4,15.87-10.37c0-16.97-50.29-7.23-50.29-38.98c0-13.83,12.89-24.99,33.32-24.99c19.65,0,32.53,10.53,33.48,27.82
			h-17.92c-0.63-7.54-6.44-12.73-16.19-12.73c-9.59,0-14.62,3.93-14.62,9.74c0,17.45,48.88,7.7,49.82,38.98
			C391.34,106.72,378.61,117.72,358.17,117.72z"/>
	</g>
</g>
</svg>
